<mxfile host="app.diagrams.net" agent="Mozilla/5.0 (Macintosh; Intel Mac OS X 10_15_7) AppleWebKit/537.36 (KHTML, like Gecko) Chrome/137.0.0.0 Safari/537.36" version="27.1.6">
  <diagram name="第 1 页" id="8usLCUESEWRcv9b8wNLU">
    <mxGraphModel dx="705" dy="451" grid="1" gridSize="10" guides="1" tooltips="1" connect="1" arrows="1" fold="1" page="1" pageScale="1" pageWidth="827" pageHeight="1169" math="0" shadow="0">
      <root>
        <mxCell id="0" />
        <mxCell id="1" parent="0" />
        <mxCell id="YgcYX4NG-kuvZ8Um1KBY-14" value="" style="edgeStyle=orthogonalEdgeStyle;rounded=0;orthogonalLoop=1;jettySize=auto;html=1;" edge="1" parent="1" source="YgcYX4NG-kuvZ8Um1KBY-1" target="YgcYX4NG-kuvZ8Um1KBY-9">
          <mxGeometry relative="1" as="geometry" />
        </mxCell>
        <mxCell id="YgcYX4NG-kuvZ8Um1KBY-1" value="op" style="ellipse;whiteSpace=wrap;html=1;" vertex="1" parent="1">
          <mxGeometry x="90" y="310" width="90" height="40" as="geometry" />
        </mxCell>
        <mxCell id="YgcYX4NG-kuvZ8Um1KBY-2" value="input1&lt;div&gt;(fp32 tensor)&lt;/div&gt;" style="text;html=1;align=center;verticalAlign=middle;whiteSpace=wrap;rounded=0;" vertex="1" parent="1">
          <mxGeometry x="80" y="160" width="100" height="30" as="geometry" />
        </mxCell>
        <mxCell id="YgcYX4NG-kuvZ8Um1KBY-3" value="input2&lt;div&gt;(fp32 scalar)&lt;/div&gt;" style="text;html=1;align=center;verticalAlign=middle;whiteSpace=wrap;rounded=0;" vertex="1" parent="1">
          <mxGeometry x="160" y="160" width="90" height="30" as="geometry" />
        </mxCell>
        <mxCell id="YgcYX4NG-kuvZ8Um1KBY-4" value="input0&lt;div&gt;(int tensor)&lt;/div&gt;" style="text;html=1;align=center;verticalAlign=middle;whiteSpace=wrap;rounded=0;" vertex="1" parent="1">
          <mxGeometry x="10" y="160" width="90" height="30" as="geometry" />
        </mxCell>
        <mxCell id="YgcYX4NG-kuvZ8Um1KBY-9" value="output0&lt;div&gt;(fp32 tensor)&lt;/div&gt;" style="text;html=1;align=center;verticalAlign=middle;whiteSpace=wrap;rounded=0;" vertex="1" parent="1">
          <mxGeometry x="80" y="450" width="110" height="30" as="geometry" />
        </mxCell>
        <mxCell id="YgcYX4NG-kuvZ8Um1KBY-10" value="" style="endArrow=classic;html=1;rounded=0;exitX=0.5;exitY=1;exitDx=0;exitDy=0;" edge="1" parent="1" source="YgcYX4NG-kuvZ8Um1KBY-2" target="YgcYX4NG-kuvZ8Um1KBY-1">
          <mxGeometry width="50" height="50" relative="1" as="geometry">
            <mxPoint x="270" y="320" as="sourcePoint" />
            <mxPoint x="130" y="230" as="targetPoint" />
          </mxGeometry>
        </mxCell>
        <mxCell id="YgcYX4NG-kuvZ8Um1KBY-13" value="" style="endArrow=classic;html=1;rounded=0;exitX=0.5;exitY=1;exitDx=0;exitDy=0;entryX=0.333;entryY=0;entryDx=0;entryDy=0;entryPerimeter=0;" edge="1" parent="1" source="YgcYX4NG-kuvZ8Um1KBY-4" target="YgcYX4NG-kuvZ8Um1KBY-1">
          <mxGeometry width="50" height="50" relative="1" as="geometry">
            <mxPoint x="270" y="320" as="sourcePoint" />
            <mxPoint x="320" y="270" as="targetPoint" />
          </mxGeometry>
        </mxCell>
        <mxCell id="YgcYX4NG-kuvZ8Um1KBY-21" value="" style="edgeStyle=orthogonalEdgeStyle;rounded=0;orthogonalLoop=1;jettySize=auto;html=1;" edge="1" parent="1" source="YgcYX4NG-kuvZ8Um1KBY-15" target="YgcYX4NG-kuvZ8Um1KBY-19">
          <mxGeometry relative="1" as="geometry" />
        </mxCell>
        <mxCell id="YgcYX4NG-kuvZ8Um1KBY-15" value="convert" style="ellipse;whiteSpace=wrap;html=1;" vertex="1" parent="1">
          <mxGeometry x="260" y="230" width="80" height="40" as="geometry" />
        </mxCell>
        <mxCell id="YgcYX4NG-kuvZ8Um1KBY-24" value="" style="edgeStyle=orthogonalEdgeStyle;rounded=0;orthogonalLoop=1;jettySize=auto;html=1;" edge="1" parent="1" source="YgcYX4NG-kuvZ8Um1KBY-16" target="YgcYX4NG-kuvZ8Um1KBY-20">
          <mxGeometry relative="1" as="geometry" />
        </mxCell>
        <mxCell id="YgcYX4NG-kuvZ8Um1KBY-16" value="truncF" style="ellipse;whiteSpace=wrap;html=1;" vertex="1" parent="1">
          <mxGeometry x="350" y="230" width="80" height="40" as="geometry" />
        </mxCell>
        <mxCell id="YgcYX4NG-kuvZ8Um1KBY-17" value="" style="endArrow=classic;html=1;rounded=0;exitX=0.5;exitY=1;exitDx=0;exitDy=0;entryX=0.441;entryY=-0.054;entryDx=0;entryDy=0;entryPerimeter=0;" edge="1" parent="1" source="YgcYX4NG-kuvZ8Um1KBY-2" target="YgcYX4NG-kuvZ8Um1KBY-15">
          <mxGeometry width="50" height="50" relative="1" as="geometry">
            <mxPoint x="270" y="320" as="sourcePoint" />
            <mxPoint x="320" y="270" as="targetPoint" />
          </mxGeometry>
        </mxCell>
        <mxCell id="YgcYX4NG-kuvZ8Um1KBY-18" value="" style="endArrow=classic;html=1;rounded=0;exitX=0.5;exitY=1;exitDx=0;exitDy=0;entryX=0.5;entryY=0;entryDx=0;entryDy=0;" edge="1" parent="1" source="YgcYX4NG-kuvZ8Um1KBY-3" target="YgcYX4NG-kuvZ8Um1KBY-16">
          <mxGeometry width="50" height="50" relative="1" as="geometry">
            <mxPoint x="270" y="320" as="sourcePoint" />
            <mxPoint x="320" y="270" as="targetPoint" />
          </mxGeometry>
        </mxCell>
        <mxCell id="YgcYX4NG-kuvZ8Um1KBY-19" value="input1&#39;&lt;div&gt;(fp16 tensor)&lt;/div&gt;" style="text;html=1;align=center;verticalAlign=middle;whiteSpace=wrap;rounded=0;" vertex="1" parent="1">
          <mxGeometry x="260" y="290" width="80" height="30" as="geometry" />
        </mxCell>
        <mxCell id="YgcYX4NG-kuvZ8Um1KBY-20" value="input2&#39;&lt;div&gt;(fp16 scalar)&lt;/div&gt;" style="text;html=1;align=center;verticalAlign=middle;whiteSpace=wrap;rounded=0;" vertex="1" parent="1">
          <mxGeometry x="345" y="290" width="90" height="30" as="geometry" />
        </mxCell>
        <mxCell id="YgcYX4NG-kuvZ8Um1KBY-25" value="" style="endArrow=classic;html=1;rounded=0;exitX=0.5;exitY=1;exitDx=0;exitDy=0;entryX=0.202;entryY=0.082;entryDx=0;entryDy=0;entryPerimeter=0;" edge="1" parent="1" source="YgcYX4NG-kuvZ8Um1KBY-4" target="YgcYX4NG-kuvZ8Um1KBY-26">
          <mxGeometry width="50" height="50" relative="1" as="geometry">
            <mxPoint x="220" y="180" as="sourcePoint" />
            <mxPoint x="240" y="310" as="targetPoint" />
          </mxGeometry>
        </mxCell>
        <mxCell id="YgcYX4NG-kuvZ8Um1KBY-32" value="" style="edgeStyle=orthogonalEdgeStyle;rounded=0;orthogonalLoop=1;jettySize=auto;html=1;" edge="1" parent="1" source="YgcYX4NG-kuvZ8Um1KBY-26" target="YgcYX4NG-kuvZ8Um1KBY-30">
          <mxGeometry relative="1" as="geometry" />
        </mxCell>
        <mxCell id="YgcYX4NG-kuvZ8Um1KBY-26" value="new op" style="ellipse;whiteSpace=wrap;html=1;" vertex="1" parent="1">
          <mxGeometry x="260" y="360" width="90" height="40" as="geometry" />
        </mxCell>
        <mxCell id="YgcYX4NG-kuvZ8Um1KBY-27" value="" style="endArrow=classic;html=1;rounded=0;exitX=0.5;exitY=1;exitDx=0;exitDy=0;entryX=0.443;entryY=0.004;entryDx=0;entryDy=0;entryPerimeter=0;" edge="1" parent="1" source="YgcYX4NG-kuvZ8Um1KBY-19" target="YgcYX4NG-kuvZ8Um1KBY-26">
          <mxGeometry width="50" height="50" relative="1" as="geometry">
            <mxPoint x="270" y="320" as="sourcePoint" />
            <mxPoint x="320" y="270" as="targetPoint" />
          </mxGeometry>
        </mxCell>
        <mxCell id="YgcYX4NG-kuvZ8Um1KBY-28" value="" style="endArrow=classic;html=1;rounded=0;exitX=0.5;exitY=1;exitDx=0;exitDy=0;entryX=0.667;entryY=0;entryDx=0;entryDy=0;entryPerimeter=0;" edge="1" parent="1" source="YgcYX4NG-kuvZ8Um1KBY-20" target="YgcYX4NG-kuvZ8Um1KBY-26">
          <mxGeometry width="50" height="50" relative="1" as="geometry">
            <mxPoint x="270" y="320" as="sourcePoint" />
            <mxPoint x="320" y="270" as="targetPoint" />
          </mxGeometry>
        </mxCell>
        <mxCell id="YgcYX4NG-kuvZ8Um1KBY-29" value="" style="endArrow=classic;html=1;rounded=0;exitX=0.5;exitY=1;exitDx=0;exitDy=0;entryX=0.667;entryY=0;entryDx=0;entryDy=0;entryPerimeter=0;" edge="1" parent="1" source="YgcYX4NG-kuvZ8Um1KBY-3" target="YgcYX4NG-kuvZ8Um1KBY-1">
          <mxGeometry width="50" height="50" relative="1" as="geometry">
            <mxPoint x="270" y="320" as="sourcePoint" />
            <mxPoint x="320" y="270" as="targetPoint" />
          </mxGeometry>
        </mxCell>
        <mxCell id="YgcYX4NG-kuvZ8Um1KBY-34" value="" style="edgeStyle=orthogonalEdgeStyle;rounded=0;orthogonalLoop=1;jettySize=auto;html=1;" edge="1" parent="1" source="YgcYX4NG-kuvZ8Um1KBY-30" target="YgcYX4NG-kuvZ8Um1KBY-33">
          <mxGeometry relative="1" as="geometry" />
        </mxCell>
        <mxCell id="YgcYX4NG-kuvZ8Um1KBY-30" value="output0&#39;&lt;div&gt;(fp16 tensor)&lt;/div&gt;" style="text;html=1;align=center;verticalAlign=middle;whiteSpace=wrap;rounded=0;" vertex="1" parent="1">
          <mxGeometry x="250" y="420" width="110" height="30" as="geometry" />
        </mxCell>
        <mxCell id="YgcYX4NG-kuvZ8Um1KBY-36" value="" style="edgeStyle=orthogonalEdgeStyle;rounded=0;orthogonalLoop=1;jettySize=auto;html=1;" edge="1" parent="1" source="YgcYX4NG-kuvZ8Um1KBY-33" target="YgcYX4NG-kuvZ8Um1KBY-35">
          <mxGeometry relative="1" as="geometry" />
        </mxCell>
        <mxCell id="YgcYX4NG-kuvZ8Um1KBY-33" value="convert" style="ellipse;whiteSpace=wrap;html=1;" vertex="1" parent="1">
          <mxGeometry x="265" y="470" width="80" height="40" as="geometry" />
        </mxCell>
        <mxCell id="YgcYX4NG-kuvZ8Um1KBY-35" value="output0&#39;&#39;&lt;div&gt;(fp32 tensor)&lt;/div&gt;" style="text;html=1;align=center;verticalAlign=middle;whiteSpace=wrap;rounded=0;" vertex="1" parent="1">
          <mxGeometry x="250" y="530" width="110" height="30" as="geometry" />
        </mxCell>
      </root>
    </mxGraphModel>
  </diagram>
</mxfile>
